<svg xmlns="http://www.w3.org/2000/svg" viewBox="0 0 64 64">
  <defs>
    <linearGradient id="g" x1="0" x2="1" y1="0" y2="1">
      <stop offset="0" stop-color="#22d3ee"/>
      <stop offset="0.6" stop-color="#7c3aed"/>
      <stop offset="1" stop-color="#a3ff12"/>
    </linearGradient>
  </defs>
  <rect x="6" y="6" width="52" height="52" rx="18" fill="url(#g)"/>
  <path d="M19 40c0-9 7-16 16-16 5 0 9 2 12 5l-5 5c-2-2-4-3-7-3-5 0-8 4-8 9 0 5 3 9 8 9 3 0 6-1 8-4l5 4c-3 4-8 7-13 7-9 0-16-7-16-16z" fill="rgba(0,0,0,.65)"/>
</svg>
